<?xml version="1.0" encoding="UTF-8" standalone="no"?>
<svg
   width="301.285"
   height="137"
   viewBox="0 0 301.285 137"
   fill="none"
   version="1.1"
   id="svg6"
   xmlns="http://www.w3.org/2000/svg"
   xmlns:svg="http://www.w3.org/2000/svg">
  <defs
     id="defs10" />
  <path
     fill-rule="evenodd"
     clip-rule="evenodd"
     d="m 235.092,40.3904 c 13.031,0.0139 19.638,0.2605 25.138,2.195 13.867,4.8418 15.816,14.7777 15.816,21.5626 0,8.3363 -3.011,17.184 -14.351,20.4638 l 16.666,28.7662 h 10.128 v 11.92 c -4.016,0.24 -6.553,0.47 -9.224,0.659 -2.666,0.216 -4.8,0.327 -6.396,0.327 -3.277,0 -5.728,-0.493 -7.348,-1.497 -1.643,-0.974 -3.104,-2.681 -4.376,-5.145 L 243.641,87.5702 h -9.498 V 106.436 H 215.929 V 53.331 h -7.727 V 40.3897 Z M 69.3266,40.0924 c 4.102,0 6.8901,0.7865 8.3815,2.35 1.4899,1.5763 2.1909,4.1554 2.1909,7.7445 v 43.0467 h 8.1197 v 11.7054 c 0,0 -9.8519,1.362 -15.7156,1.362 -3.1554,0 -5.5025,-0.461 -7.0805,-1.362 -1.5676,-0.888 -2.6186,-2.326 -3.147,-4.297 -2.8841,2.153 -10.275,7.039 -19.3053,7.039 -5.8717,0 -12.2383,-1.687 -17.0008,-6.233 -1.8119,-1.7452 -4.8503,-6.5793 -4.8503,-16.0331 V 53.1489 H 12.7964 V 41.3092 c 2.5389,-0.3712 5.3284,-0.6519 8.3995,-0.8843 3.0349,-0.2332 5.4878,-0.3325 7.3273,-0.3325 4.1054,0 6.9001,0.7865 8.3963,2.35 1.4771,1.5763 2.2187,4.1554 2.2187,7.7445 v 32.6714 c 0,2.9627 0.5155,5.3757 2.0966,6.5876 3.9621,3.0606 12.2102,1.9166 14.351,1.6832 2.1467,-0.2147 4.1834,-0.5447 6.1011,-1.0028 V 53.1489 H 53.5912 V 41.3092 c 2.5473,-0.3712 5.3368,-0.6519 8.3915,-0.8843 3.0564,-0.2332 5.5125,-0.3325 7.3439,-0.3325 z m 117.3654,0 c 4.202,0 7.017,0.7865 8.514,2.35 1.498,1.5763 2.226,4.1589 2.226,7.7445 V 106.44 H 179.218 V 53.1525 h -8.646 V 41.4312 c 1.293,-0.1772 2.698,-0.3271 4.2,-0.472 0,0 8.127,-0.8668 11.92,-0.8668 z m -47.364,-1.3497 c 14.798,0 19.785,11.2154 19.785,22.2218 v 32.2691 h 7.941 v 11.7054 c 0,0 -7.011,0.877 -8.396,1.024 -1.396,0.122 -2.759,0.216 -4.055,0.271 -1.191,0.031 -2.148,0.047 -2.967,0.067 h -0.308 c -0.185,0 -0.349,-0.027 -0.535,-0.027 -0.332,-0.009 -0.656,-0.012 -0.981,-0.04 -1.252,-0.062 -2.353,-0.22 -3.303,-0.458 -0.088,-0.016 -0.145,-0.035 -0.22,-0.059 -0.771,-0.194 -2.257,-0.746 -3.17,-1.718 -1.501,-1.597 -2.213,-4.2212 -2.213,-7.819 V 63.5197 c 0,-3.0443 -0.708,-5.2557 -2.113,-6.5978 -0.871,-0.8066 -2.008,-1.3725 -3.395,-1.613 -8.211,-1.4443 -15.468,0.4979 -17.306,0.9524 V 105.745 H 99.8648 V 53.1489 H 90.8357 V 41.4287 c 2.5329,-0.444 11.1503,-1.3363 16.3793,-1.3363 3.234,0 5.662,0.4471 7.287,1.3363 1.607,0.9004 2.719,2.301 3.323,4.1847 7.649,-6.4003 17.662,-6.8707 21.503,-6.8707 z m 104.869,14.225 h -10.054 v 22.3049 h 10.769 c 9.394,0 12.953,-6.1263 12.953,-11.3662 0,-4.9986 -1.441,-10.9387 -13.668,-10.9387 z M 185.513,8.53088 c 3.037,0 5.356,0.68311 6.867,2.01772 1.453,1.3198 2.201,3.5866 2.201,6.7617 v 1.796 c 0,3.1792 -0.729,5.4185 -2.201,6.6906 -1.511,1.2904 -3.819,1.9508 -6.867,1.9508 h -0.958 c -3.111,0 -5.454,-0.6468 -6.905,-1.9422 -1.434,-1.2682 -2.171,-3.5241 -2.171,-6.6992 v -1.796 c 0,-3.1595 0.737,-5.4419 2.171,-6.7617 1.481,-1.3391 3.805,-2.01772 6.905,-2.01772 z"
     fill="#000000"
     id="path2" />
</svg>
